<?xml version="1.0" encoding="UTF-8"?>
<svg version="1.1" xmlns="http://www.w3.org/2000/svg" width="32" height="32">
<path d="M0 0 C8.70984454 -1.04055665 14.5328955 1.68909431 22 6 C22 6.66 22 7.32 22 8 C20.824375 8.08121094 19.64875 8.16242187 18.4375 8.24609375 C13.17880455 8.9022734 9.61599285 11.31551847 5.2890625 14.20507812 C0.52872977 17.18297858 -2.56134147 17.45514197 -8 17 C-8.66 16.67 -9.32 16.34 -10 16 C-9.64054253 13.39393335 -9.23212513 12.22352791 -7.3125 10.375 C-4.63324163 8.78192745 -1.98238984 7.88116063 1 7 C0.649375 6.21625 0.29875 5.4325 -0.0625 4.625 C-0.371875 3.75875 -0.68125 2.8925 -1 2 C-0.67 1.34 -0.34 0.68 0 0 Z " fill="#51B547" transform="translate(10,8)"/>
<path d="M0 0 C8.70984454 -1.04055665 14.5328955 1.68909431 22 6 C22 6.66 22 7.32 22 8 C18.72815192 7.91915297 15.45817221 7.80631126 12.1875 7.6875 C11.25873047 7.66494141 10.32996094 7.64238281 9.37304688 7.61914062 C8.48037109 7.58369141 7.58769531 7.54824219 6.66796875 7.51171875 C5.43469849 7.47244263 5.43469849 7.47244263 4.17651367 7.43237305 C1.5424154 6.90909901 0.58597335 6.14101517 -1 4 C-0.6875 1.8125 -0.6875 1.8125 0 0 Z " fill="#BC2926" transform="translate(10,8)"/>
</svg>
